<svg width="16" height="16" viewBox="0 0 16 16" style="fill: inherit;" xmlns="http://www.w3.org/2000/svg" xmlns:xlink="http://www.w3.org/1999/xlink"><defs><path d="M8 2a.666.666 0 110 1.333H4c-.368 0-.667.3-.667.667v8c0 .367.299.667.667.667h8c.368 0 .667-.3.667-.667V8A.666.666 0 1114 8v4c0 1.103-.897 2-2 2H4c-1.103 0-2-.897-2-2V4c0-1.103.897-2 2-2zm2.67 0l2.665.013c.366.002.663.3.663.666L14 5.333a.666.666 0 11-1.333.001V4.277L8.47 8.47a.665.665 0 01-.942 0 .666.666 0 010-.942l4.19-4.19-1.056-.006A.666.666 0 0110.667 2h.003z" id="prefix__ExternalLink"></path></defs><g fill="none" fill-rule="evenodd"><use fill="#8F9BB3" xlink:href="#prefix__ExternalLink" transform="translate(-2 -2)"></use></g></svg>