<svg width="16" height="16" viewBox="0 0 16 16" style="fill: white;" xmlns="http://www.w3.org/2000/svg"><path d="M9.23104082,14.9514887 L8.43827216,15.7648617 C8.10259533,16.1092629 7.55979877,16.1092629 7.22769298,15.7648617 L0.285610623,8.6460158 C-0.0500661988,8.30161461 -0.0500661988,7.74471056 0.285610623,7.40397321 L7.22769298,0.281463477 C7.5633698,-0.0629377142 8.10616636,-0.0629377142 8.43827216,0.281463477 L9.23104082,1.0948365 C9.57028867,1.44290153 9.56314661,2.01079712 9.2167567,2.35153446 L4.91366553,6.5576256 L15.1768058,6.5576256 C15.6517528,6.5576256 16.033853,6.94965674 16.033853,7.43694779 L16.033853,8.60937738 C16.033853,9.09666842 15.6517528,9.48869957 15.1768058,9.48869957 L4.91366553,9.48869957 L9.2167567,13.6947907 C9.56671764,14.0355281 9.5738597,14.6034236 9.23104082,14.9514887 Z"></path></svg>