<svg width="16" height="16" viewBox="0 0 16 16" style="fill: white;" xmlns="http://www.w3.org/2000/svg"><path d="M3.917 1H.75a.75.75 0 00-.75.75v2.5c0 .414.336.75.75.75h3.167a.75.75 0 00.75-.75v-2.5a.75.75 0 00-.75-.75zm.75 8.25v-2.5a.75.75 0 00-.75-.75H.75a.75.75 0 00-.75.75v2.5c0 .414.336.75.75.75h3.167a.75.75 0 00.75-.75zM0 14.25v-2.5A.75.75 0 01.75 11h3.167a.75.75 0 01.75.75v2.5a.75.75 0 01-.75.75H.75a.75.75 0 01-.75-.75zm15.25.75H6.417a.75.75 0 01-.75-.75v-2.5a.75.75 0 01.75-.75h8.833a.75.75 0 01.75.75v2.5a.75.75 0 01-.75.75zM5.667 1.75v2.5c0 .414.335.75.75.75h8.833a.75.75 0 00.75-.75v-2.5a.75.75 0 00-.75-.75H6.417a.75.75 0 00-.75.75zM15.25 10H6.417a.75.75 0 01-.75-.75v-2.5a.75.75 0 01.75-.75h8.833a.75.75 0 01.75.75v2.5a.75.75 0 01-.75.75z"></path></svg>