<svg width="16" height="16" viewBox="0 0 16 16" style="fill: white;" xmlns="http://www.w3.org/2000/svg"><path d="M6.78841871,1.06547884 L7.57951002,0.274387528 C7.91447661,-0.0605790646 8.45612472,-0.0605790646 8.78752784,0.274387528 L15.714922,7.19821826 C16.0498886,7.53318486 16.0498886,8.07483296 15.714922,8.40623608 L8.78752784,15.3336303 C8.45256125,15.6685969 7.91091314,15.6685969 7.57951002,15.3336303 L6.78841871,14.542539 C6.44988864,14.2040089 6.45701559,13.6516704 6.80267261,13.3202673 L11.0966592,9.22939866 L0.855233853,9.22939866 C0.381291759,9.22939866 0,8.8481069 0,8.37416481 L0,7.23385301 C0,6.75991091 0.381291759,6.37861915 0.855233853,6.37861915 L11.0966592,6.37861915 L6.80267261,2.28775056 C6.45345212,1.95634744 6.44632517,1.40400891 6.78841871,1.06547884 Z"></path></svg>