<svg width="16" height="16" viewBox="0 0 16 16" style="fill: white;" xmlns="http://www.w3.org/2000/svg"><path d="M1.125 0h4.75C6.496 0 7 .576 7 1.286V5.57c0 .71-.504 1.286-1.125 1.286h-4.75C.504 6.857 0 6.282 0 5.571V1.286C0 .576.504 0 1.125 0zM0 14.714V10.43c0-.71.504-1.286 1.125-1.286h4.75c.621 0 1.125.575 1.125 1.286v4.285C7 15.424 6.496 16 5.875 16h-4.75C.504 16 0 15.424 0 14.714zM9.508 16h5.984c.28 0 .508-.576.508-1.286V10.43c0-.71-.227-1.286-.508-1.286H9.508c-.28 0-.508.575-.508 1.286v4.285c0 .71.227 1.286.508 1.286zM9 5.571V1.286C9 .576 9.227 0 9.508 0h5.984c.28 0 .508.576.508 1.286V5.57c0 .71-.227 1.286-.508 1.286H9.508c-.28 0-.508-.575-.508-1.286z"></path></svg>